<?xml version="1.0" encoding="utf-8"?><svg xmlns="http://www.w3.org/2000/svg" xmlns:xlink="http://www.w3.org/1999/xlink" width="1536" height="742" preserveAspectRatio="xMidYMid" viewBox="0 0 1536 742" style="z-index:1;margin-right:-1.6px;display:block;background-color:rgb(255, 255, 255);animation-play-state:paused" ><g transform="translate(768,371) scale(1,1) translate(-768,-371)" style="transform:matrix(1, 0, 0, 1, 0, 0);animation-play-state:paused" ><linearGradient id="lg-0.008687370009419215" x1="0" x2="1" y1="0" y2="0" style="animation-play-state:paused" ><stop stop-color="#ff00ff" offset="0" style="animation-play-state:paused" ></stop>

  
<stop stop-color="#00ffff" offset="1" style="animation-play-state:paused" ></stop></linearGradient>
<path d="M 0 0 L 0 737.367 Q 153.6 661.667 307.2 642.168 T 614.4 505.485 T 921.6 470.416 T 1228.8 391.647 T 1536 398.316 L 1536 0 Z" fill="url(#lg-0.008687370009419215)" opacity="0.4" style="opacity:0.4;animation-play-state:paused" ></path>
<path d="M 0 0 L 0 645.506 Q 153.6 685.124 307.2 653.902 T 614.4 551.177 T 921.6 469.48 T 1228.8 374.359 T 1536 318.734 L 1536 0 Z" fill="url(#lg-0.008687370009419215)" opacity="0.4" style="opacity:0.4;animation-play-state:paused" ></path>
<path d="M 0 0 L 0 663.226 Q 153.6 658.703 307.2 620.608 T 614.4 466.857 T 921.6 432.021 T 1228.8 433.496 T 1536 335.084 L 1536 0 Z" fill="url(#lg-0.008687370009419215)" opacity="0.4" style="opacity:0.4;animation-play-state:paused" ></path>
<path d="M 0 0 L 0 734.828 Q 153.6 694.998 307.2 662.329 T 614.4 508.348 T 921.6 525.414 T 1228.8 482.695 T 1536 330.958 L 1536 0 Z" fill="url(#lg-0.008687370009419215)" opacity="0.4" style="opacity:0.4;animation-play-state:paused" ></path>
<path d="M 0 0 L 0 659.7 Q 153.6 612.569 307.2 591.03 T 614.4 516.643 T 921.6 472.366 T 1228.8 407.619 T 1536 283.811 L 1536 0 Z" fill="url(#lg-0.008687370009419215)" opacity="0.4" style="opacity:0.4;animation-play-state:paused" ></path></g></svg>