<?xml version="1.0" encoding="utf-8"?><svg xmlns="http://www.w3.org/2000/svg" xmlns:xlink="http://www.w3.org/1999/xlink" width="2741" height="742" preserveAspectRatio="xMidYMid" viewBox="0 0 2741 742" style="z-index:1;margin-right:-1.6px;display:block;background-color:rgb(255, 255, 255);animation-play-state:paused" ><g transform="translate(1370.5,371) scale(1,1) translate(-1370.5,-371)" style="transform:matrix(1, 0, 0, 1, 0, 0);animation-play-state:paused" ><linearGradient id="lg-0.985273551930669" x1="0" x2="1" y1="0" y2="0" style="animation-play-state:paused" ><stop stop-color="#ff00ff" offset="0" style="animation-play-state:paused" ></stop>

  
<stop stop-color="#00ffff" offset="1" style="animation-play-state:paused" ></stop></linearGradient>
<path d="M 0 0 L 0 604.998 Q 274.1 578.08 548.2 536.183 T 1096.4 428.186 T 1644.6 365.08 T 2192.8 255.683 T 2741 203.473 L 2741 0 Z" fill="url(#lg-0.985273551930669)" opacity="0.4" style="opacity:0.4;animation-play-state:paused" ></path>
<path d="M 0 0 L 0 592.155 Q 274.1 543.172 548.2 523.55 T 1096.4 439.067 T 1644.6 343.275 T 2192.8 282.025 T 2741 154.791 L 2741 0 Z" fill="url(#lg-0.985273551930669)" opacity="0.4" style="opacity:0.4;animation-play-state:paused" ></path>
<path d="M 0 0 L 0 594.516 Q 274.1 567.963 548.2 540.932 T 1096.4 435.939 T 1644.6 349.586 T 2192.8 296.454 T 2741 170.047 L 2741 0 Z" fill="url(#lg-0.985273551930669)" opacity="0.4" style="opacity:0.4;animation-play-state:paused" ></path>
<path d="M 0 0 L 0 611.749 Q 274.1 547.071 548.2 511.074 T 1096.4 439.078 T 1644.6 355.414 T 2192.8 209.636 T 2741 117.949 L 2741 0 Z" fill="url(#lg-0.985273551930669)" opacity="0.4" style="opacity:0.4;animation-play-state:paused" ></path>
<path d="M 0 0 L 0 611.404 Q 274.1 564.759 548.2 538.626 T 1096.4 427.271 T 1644.6 322.599 T 2192.8 187.408 T 2741 73.9742 L 2741 0 Z" fill="url(#lg-0.985273551930669)" opacity="0.4" style="opacity:0.4;animation-play-state:paused" ></path></g></svg>